# xmcd
#
# Track frame offsets: 
#        150
#        17887
#        36350
#        53140
#        68442
#        82523
#        104493
#        121456
#        136189
#        154151
#        175366
#        192456
#
# Disc length: 2795 seconds
#
# Revision: 0
# Processed by: cddbd v1.5.2PL0 Copyright (c) Steve Scherf et al.
# Submitted via: ExactAudioCopyFreeDBPlugin 1.0
#
DISCID=9b0ae90c
DTITLE=Neznámi - čas uvidí
DYEAR=2015
DGENRE=Country
TTITLE0=Som stále tu
TTITLE1=Len s tým, koho máš rád
TTITLE2=Vráť mi ten ďeň
TTITLE3=Je tu nádej
TTITLE4=Hej bejby
TTITLE5=Čas uvidí
TTITLE6=Dobro means Good
TTITLE7=Pred sebou mám
TTITLE8=Stýkrát
TTITLE9=Možno
TTITLE10=Poraď, čo s tým
TTITLE11=Do neba
EXTD=
EXTT0=
EXTT1=
EXTT2=
EXTT3=
EXTT4=
EXTT5=
EXTT6=
EXTT7=
EXTT8=
EXTT9=
EXTT10=
EXTT11=
PLAYORDER=
